<?xml version="1.0" encoding="utf-8"?>
<!-- Svg Vector Icons : http://www.onlinewebfonts.com/icon -->
<!DOCTYPE svg PUBLIC "-//W3C//DTD SVG 1.1//EN" "http://www.w3.org/Graphics/SVG/1.1/DTD/svg11.dtd">
<svg version="1.1" xmlns="http://www.w3.org/2000/svg" xmlns:xlink="http://www.w3.org/1999/xlink" x="0px" y="0px" viewBox="0 0 256 256" enable-background="new 0 0 256 256" xml:space="preserve">
<metadata> Svg Vector Icons : http://www.onlinewebfonts.com/icon </metadata>
<g><g><path fill="#0ea5e9" d="M246,17.3H87.1v17.4c-24,2.7-42.6,22.5-42.6,46.5c0,25.9,21.6,46.8,48.2,46.8c16.3,0,30.7-7.9,39.4-19.9h76.9v-5.7h-73.4c2.7-5.2,4.5-10.9,5.1-17h68.3v-5.7h-68.2c-0.1-5-1.1-9.7-2.7-14.2h70.9v-5.7h-73.4c-6.3-12-17.8-21-31.6-24.2v-1.3H229v158.9h-56c-12.8-41.8-46.2-53.9-46.2-53.9l-34.1,45.4l-31.2-48.2c-28.9,12.5-55.5,50.2-51.1,88c34.5,16.9,100.2,21,167.4,0c-0.1-5-0.6-9.7-1.2-14.2H246V17.3z M209.1,122.3h-56.7v5.7h56.8L209.1,122.3L209.1,122.3z"/></g></g>
</svg>